<?xml version="1.0" encoding="UTF-8"?>
<svg width="71px" height="35px" viewBox="0 0 71 35" version="1.1" xmlns="http://www.w3.org/2000/svg" xmlns:xlink="http://www.w3.org/1999/xlink">
    <!-- Generator: Sketch 54.1 (76490) - https://sketchapp.com -->
    <title>Kanopy Kids 2.0 Logo FINAL</title>
    <desc>Created with Sketch.</desc>
    <g id="User-Guide-2" stroke="none" stroke-width="1" fill="none" fill-rule="evenodd">
        <g id="Kanopy-Web---VP-Logged-User---Search06" transform="translate(-154.000000, -10.000000)" fill-rule="nonzero">
            <g id="Kanopy-Kids-2.0-Logo-FINAL" transform="translate(154.000000, 10.000000)">
                <g id="Group" transform="translate(8.875000, 0.000000)" fill="#FFFFFF">
                    <path d="M3.07979587,7.04169708 L3.07979587,6.52992701 L3.42277314,6.52992701 C3.45077128,6.52992701 3.46477035,6.52992701 3.48576896,6.52992701 C3.58376247,6.52992701 3.68175597,6.5169708 3.77274994,6.48458029 C3.80074809,6.47162409 3.80774762,6.45866788 3.80774762,6.45218978 C3.80774762,6.42627737 3.79374855,6.40036496 3.77274994,6.38093066 L2.5618302,4.81322993 L2.00886685,5.27317518 L2.00886685,6.32262774 C2.00186732,6.37445255 2.02986546,6.41979927 2.07186268,6.45218978 C2.14885757,6.4975365 2.24685108,6.52344891 2.35184412,6.52344891 L2.37984226,6.52344891 L2.79281489,6.52344891 L2.79281489,7.03521898 L0.125991649,7.03521898 L0.125991649,6.52344891 L0.62295871,6.52344891 C0.643957318,6.52344891 0.650956855,6.52344891 0.664955927,6.52344891 C0.762949432,6.52344891 0.853943401,6.4975365 0.930938297,6.43923358 C0.97993505,6.39388686 1.01493273,6.32262774 1.00793319,6.24489051 L1.00793319,0.939324818 C1.01493273,0.848631387 0.972935514,0.764416058 0.902940153,0.712591241 C0.769948968,0.628375912 0.601960102,0.583029197 0.433971236,0.583029197 L0.0629958246,0.583029197 L0.0629958246,0.0842153285 L2.02286592,0 L2.02286592,4.59297445 L3.37377639,3.49817518 C3.47876943,3.43339416 3.54176525,3.33622263 3.56276386,3.23257299 C3.56276386,3.20666058 3.52776618,3.16131387 3.48576896,3.14835766 C3.3177801,3.08357664 3.12879262,3.05118613 2.94680469,3.05118613 L2.79981443,3.05766423 L2.79981443,2.56532847 L5.45963814,2.56532847 L5.45963814,3.05766423 L5.36864417,3.05766423 C4.97667015,3.05766423 4.60569473,3.18074818 4.30471468,3.39452555 L3.30378103,4.21076642 L4.96967061,6.36149635 C5.06766412,6.46514599 5.21465437,6.52992701 5.3756437,6.52992701 C5.39664231,6.52992701 5.41764092,6.52992701 5.43163999,6.52992701 L5.79561587,6.52992701 L5.79561587,7.04169708 L3.07979587,7.04169708 Z" id="Path"></path>
                    <path d="M7.47550452,7.18421533 C7.09752958,7.18421533 6.74055324,7.07408759 6.43257365,6.87326642 C6.16659128,6.67892336 6.01960102,6.38093066 6.02660056,6.06998175 C6.02660056,5.59708029 6.32758061,5.19543796 6.92254117,4.88448905 C7.62249478,4.56058394 8.3644456,4.35976277 9.14139411,4.29498175 L9.14139411,3.71843066 C9.13439457,3.51760949 9.03640107,3.32326642 8.86141267,3.20018248 C8.67242519,3.05118613 8.4414405,2.9669708 8.19645674,2.9669708 L8.11246231,2.9669708 C7.88147762,2.9669708 7.65049293,3.01879562 7.45450592,3.12244526 C7.34251334,3.18722628 7.27951751,3.2455292 7.27951751,3.29087591 C7.29351659,3.33622263 7.32851427,3.40100365 7.37751102,3.44635036 C7.47550452,3.5564781 7.53150081,3.68604015 7.54549988,3.82208029 C7.55249942,3.97755474 7.4895036,4.12007299 7.37751102,4.22372263 C7.26551844,4.32737226 7.11152865,4.37919708 6.95753885,4.37919708 C6.95753885,4.37919708 6.92954071,4.37919708 6.92954071,4.37919708 C6.74755277,4.37919708 6.57956391,4.31441606 6.45357226,4.19781022 C6.32758061,4.07472628 6.25758525,3.90629562 6.26458478,3.73138686 C6.29258293,3.35565693 6.51656808,3.01879562 6.86654489,2.83093066 C7.27251798,2.57828467 7.75548597,2.44224453 8.25245303,2.44224453 C8.28745071,2.44224453 8.32944792,2.44224453 8.3644456,2.44224453 C8.39944328,2.44224453 8.44844004,2.43576642 8.49743679,2.43576642 C8.92440849,2.43576642 9.33038158,2.55885036 9.68035839,2.78558394 C9.98133844,2.99288321 10.1563268,3.32326642 10.1563268,3.66660584 L10.1563268,6.02463504 C10.1423278,6.17363139 10.1773254,6.31614964 10.2543203,6.43923358 C10.2963176,6.5040146 10.3663129,6.54936131 10.4503074,6.54936131 C10.5832985,6.54288321 10.7092902,6.4975365 10.8142832,6.41979927 L10.8912781,6.35501825 L11.16426,6.74370438 L11.1222628,6.78905109 C10.9052772,7.02226277 10.5902981,7.15830292 10.2543203,7.16478102 L10.2263222,7.16478102 C10.0093366,7.16478102 9.7993505,7.1 9.63136163,6.97691606 C9.46337277,6.83439781 9.33738112,6.66596715 9.24638715,6.48458029 C9.02940153,6.69835766 8.77741823,6.87326642 8.49743679,7.01578467 C8.22445488,7.12591241 7.9374739,7.18421533 7.64349339,7.18421533 L7.5874971,7.18421533 C7.54549988,7.18421533 7.5105022,7.18421533 7.47550452,7.18421533 Z M9.13439457,4.76140511 C8.54643354,4.81322993 7.97947112,4.98813869 7.47550452,5.26669708 C7.24451983,5.42864964 7.11852818,5.69425182 7.13252726,5.96633212 C7.11852818,6.16067518 7.18852354,6.34206204 7.32151473,6.48458029 C7.43350731,6.59470803 7.59449664,6.65301095 7.75548597,6.65301095 L7.78348411,6.65301095 C8.14046045,6.65301095 8.48343772,6.5104927 8.72142194,6.27080292 C8.98740431,6.01167883 9.14139411,5.65538321 9.12739504,5.29908759 L9.12739504,4.76140511 L9.13439457,4.76140511 Z" id="Shape"></path>
                    <path d="M11.542235,7.05465328 L11.542235,6.52992701 L11.9482081,6.52992701 L11.9902053,6.52992701 C12.0881988,6.52992701 12.1861923,6.5040146 12.2631872,6.45218978 C12.3191835,6.41332117 12.3471816,6.35501825 12.3471816,6.29023723 L12.3471816,3.51113139 C12.3541812,3.37509124 12.3051844,3.2455292 12.2141904,3.15483577 C12.1231965,3.07709854 11.9972048,3.03822993 11.8642136,3.03822993 C11.8502146,3.03822993 11.8362155,3.03822993 11.829216,3.03822993 L11.4932382,3.03822993 L11.5002378,2.57828467 L13.201125,2.48111314 L13.2151241,2.55237226 C13.2641209,2.78558394 13.3061181,3.02527372 13.3341162,3.2649635 C13.5021051,3.05766423 13.7120912,2.87627737 13.9500754,2.74023723 C14.2510554,2.57828467 14.5870332,2.49406934 14.9300104,2.49406934 L15.0000058,2.49406934 C15.2659882,2.49406934 15.5319705,2.55885036 15.7629552,2.6754562 C16.0009395,2.81149635 16.1899269,3.01231752 16.3019195,3.2455292 C16.4349107,3.51113139 16.4979065,3.80264599 16.4979065,4.09416058 L16.4979065,6.18658759 C16.4839074,6.29023723 16.5189051,6.39388686 16.5889005,6.46514599 C16.6518963,6.5104927 16.7568894,6.53640511 16.8548829,6.53640511 C16.8688819,6.53640511 16.882881,6.53640511 16.8968801,6.53640511 L17.3168522,6.53640511 L17.3168522,7.04817518 L14.7060253,7.04817518 L14.7060253,6.53640511 L15.0280039,6.53640511 C15.0560021,6.53640511 15.0770007,6.53640511 15.0979993,6.53640511 C15.2169914,6.53640511 15.3359835,6.5040146 15.433977,6.45218978 C15.4899733,6.40684307 15.524971,6.32262774 15.5179715,6.23841241 L15.5179715,4.39215328 C15.5389701,4.10063869 15.4689747,3.80912409 15.328984,3.55 C15.1819937,3.32326642 14.9090118,3.18074818 14.6150313,3.18074818 L14.5730341,3.18074818 C14.2230573,3.18074818 13.9080782,3.32326642 13.7050916,3.56943431 C13.4531083,3.86094891 13.3271167,4.23020073 13.3481153,4.59945255 L13.3481153,6.19306569 C13.3341162,6.29671533 13.3691139,6.40036496 13.4391093,6.47162409 C13.5091046,6.5169708 13.6070981,6.54288321 13.7050916,6.54288321 C13.7190907,6.54288321 13.7330898,6.54288321 13.7470888,6.54288321 L14.1600615,6.54288321 L14.1600615,7.05465328 L11.542235,7.05465328 Z" id="Path"></path>
                    <path d="M19.9416783,7.17125912 C19.3397182,7.17125912 18.7657562,6.93156934 18.3667826,6.5104927 C17.9188123,6.03759124 17.6878277,5.43512774 17.7088263,4.80675182 C17.6808281,4.18485401 17.9118128,3.57591241 18.3667826,3.10301095 C18.7657562,2.68193431 19.3467177,2.43576642 19.9556773,2.43576642 L20.0256727,2.43576642 C20.6346323,2.43576642 21.2155938,2.6754562 21.6285665,3.09005474 C22.0835363,3.5629562 22.3215205,4.17189781 22.2865228,4.80027372 C22.3005219,5.22135036 22.1955289,5.65538321 21.9925423,6.03759124 C21.7965553,6.38093066 21.5025748,6.66596715 21.1455985,6.86031022 C20.7886221,7.06113139 20.382649,7.16478102 19.9696764,7.16478102 L19.9416783,7.17125912 Z M19.9766759,2.93458029 C19.6406982,2.93458029 19.3257191,3.09005474 19.1437312,3.35565693 C18.8847483,3.78321168 18.7657562,4.27554745 18.8007539,4.76788321 C18.7587567,5.28613139 18.8777488,5.78494526 19.1437312,6.23193431 C19.3187196,6.4975365 19.6406982,6.66596715 19.9766759,6.66596715 C19.9766759,6.66596715 19.9766759,6.66596715 19.9766759,6.66596715 C20.3406518,6.66596715 20.6626305,6.5040146 20.851618,6.23193431 C21.0826026,5.9274635 21.1945952,5.42864964 21.1945952,4.7290146 C21.1945952,4.08768248 21.0826026,3.62125912 20.8586175,3.33622263 C20.66963,3.08357664 20.3546509,2.92810219 20.0186732,2.92810219 L19.9766759,2.93458029 Z" id="Shape"></path>
                    <path d="M22.7484922,8.82317518 L22.7484922,8.31140511 C22.7484922,8.31140511 23.1824635,8.31140511 23.1824635,8.31140511 C23.3084551,8.31140511 23.3994491,8.2854927 23.4834435,8.23366788 C23.5324403,8.19479927 23.5674379,8.13649635 23.5674379,8.07171533 L23.5674379,3.55 C23.581437,3.40100365 23.5324403,3.2649635 23.4274472,3.16131387 C23.2874565,3.09005474 23.1124681,3.03822993 22.9234806,3.03822993 C22.8954825,3.03822993 22.8744839,3.03822993 22.8464857,3.03822993 L22.7484922,3.04470803 L22.7484922,2.56532847 L24.4143818,2.47463504 L24.4283809,2.54589416 C24.4773776,2.77262774 24.5193749,2.99936131 24.5403735,3.23257299 C24.7013628,3.02527372 24.9043493,2.85036496 25.135334,2.70784672 C25.3943169,2.55885036 25.6952969,2.48111314 25.996277,2.48111314 C26.3532533,2.48111314 26.6822315,2.58476277 26.9692125,2.76614964 C27.2911911,2.97992701 27.5431744,3.2649635 27.7041638,3.59534672 C27.8931512,3.97107664 27.9911447,4.39215328 27.9841452,4.80675182 C28.0191429,5.46104015 27.7741591,6.09589416 27.2981907,6.58822993 C26.9552134,6.95748175 26.4512468,7.16478102 25.9262816,7.16478102 C25.9262816,7.16478102 25.9262816,7.16478102 25.9262816,7.16478102 C25.6113025,7.16478102 25.331321,7.0870438 25.0863373,6.94452555 C24.8973498,6.83439781 24.7363605,6.69187956 24.5963698,6.52992701 L24.5963698,7.9939781 C24.5823707,8.08467153 24.6103688,8.16888686 24.6733646,8.22718978 C24.74336,8.2790146 24.8413535,8.31140511 24.9463466,8.31140511 L24.9743447,8.31140511 L25.4083159,8.31140511 L25.4083159,8.81021898 L22.7484922,8.81021898 L22.7484922,8.82317518 Z M25.7792913,3.07709854 C25.4363141,3.08357664 25.1283345,3.2520073 24.9463466,3.51760949 C24.6733646,3.92572993 24.5543725,4.38567518 24.5893702,4.86505474 C24.547373,5.3379562 24.6663651,5.81085766 24.9323475,6.1995438 C25.121335,6.44571168 25.4293145,6.60118613 25.7652923,6.60118613 L25.8212886,6.60118613 C26.0942705,6.60118613 26.3532533,6.47162409 26.5072431,6.26432482 C26.7662259,5.84324818 26.885218,5.35739051 26.8502204,4.86505474 C26.8502204,4.21724453 26.7522269,3.75082117 26.5492403,3.47874088 C26.3812514,3.23257299 26.0872709,3.07709854 25.7792913,3.07709854 Z" id="Shape"></path>
                    <path d="M29.0480747,8.8685219 C28.8240895,8.8685219 28.6071039,8.79726277 28.4391151,8.66122263 C28.2711262,8.53166058 28.1731327,8.33731752 28.1801322,8.13001825 C28.1731327,7.9875 28.2361285,7.83850365 28.3411215,7.73485401 C28.4461146,7.63120438 28.5931048,7.57290146 28.7400951,7.57290146 C28.9010844,7.57290146 29.0340756,7.62472628 29.1320691,7.70894161 C29.2300626,7.79315693 29.2930585,7.91624088 29.2930585,8.04580292 C29.2860589,8.10410584 29.2790594,8.14945255 29.2720598,8.20127737 C29.2650603,8.23366788 29.2580608,8.25958029 29.2580608,8.2854927 C29.2580608,8.2919708 29.2580608,8.30492701 29.3210566,8.30492701 C29.4330492,8.30492701 29.5450418,8.2725365 29.6430353,8.22071168 C29.783026,8.14297445 29.9090176,8.02636861 29.9930121,7.89680657 C30.2169972,7.56642336 30.4199838,7.21660584 30.6019717,6.86031022 L28.8520877,3.38804745 C28.8030909,3.29087591 28.7330956,3.20666058 28.6421016,3.14835766 C28.5371086,3.09005474 28.4041174,3.05118613 28.2781257,3.03822993 L28.1941313,3.03175182 L28.1941313,2.55885036 L30.5949722,2.55885036 L30.5949722,3.03822993 L30.2939921,3.03822993 C30.265994,3.03822993 30.2449954,3.03822993 30.2239968,3.03822993 C30.1260032,3.03822993 30.0210102,3.05766423 29.9370158,3.10301095 C29.9020181,3.12892336 29.8810195,3.17427007 29.8810195,3.23257299 C29.8810195,3.2649635 29.888019,3.29087591 29.9020181,3.31678832 L31.1199374,5.73959854 L31.9878798,3.77673358 C32.0508757,3.64069343 32.0858733,3.50465328 32.0858733,3.36213504 C32.0928729,3.28439781 32.0508757,3.21313869 31.9808803,3.16779197 C31.83389,3.09653285 31.6589016,3.05766423 31.4769137,3.05766423 L31.3859197,3.05766423 L31.3649211,2.97344891 L31.3649211,2.57180657 L33.4927801,2.57180657 L33.4927801,3.05118613 L33.4017861,3.05118613 C33.1148051,3.05766423 32.8488228,3.21961679 32.7298307,3.46578467 L31.0149443,7.16478102 C30.8189573,7.65711679 30.5179773,8.10410584 30.1190037,8.48631387 C29.8390223,8.72600365 29.4820459,8.8620438 29.104071,8.8685219 C29.0900719,8.8685219 29.0690733,8.8685219 29.0480747,8.8685219 Z" id="Path"></path>
                </g>
                <polygon id="Path" fill="#FFFFFF" points="18.7361111 29.5833333 11.3240232 29.5833333 8.06407713 23.5558455 6.62283781 25.3887658 6.62283781 29.5833333 0 29.5833333 0 4.93055556 6.62283781 4.93055556 6.62283781 17.7680472 11.1867623 11.3457765 18.5988502 11.3457765 12.3877951 19.2132344"></polygon>
                <polygon id="Path" fill="#FFFFFF" points="20.7083333 10.8472222 27.6111111 10.8472222 27.6111111 28.5972222 20.7083333 28.5972222"></polygon>
                <path d="M51.2777778,4.93055556 L51.2777778,29.1674866 L44.5606209,29.1674866 L44.5606209,27.0535993 C43.1336601,28.6476783 41.1498366,29.5833333 38.8179739,29.5833333 C33.9802288,29.5833333 30.5694444,25.7020976 30.5694444,20.1851982 C30.5694444,14.7098835 33.9802288,10.821717 38.8179739,10.821717 C41.1498366,10.821717 43.1336601,11.757372 44.5606209,13.351451 L44.5606209,4.93055556 L51.2777778,4.93055556 Z M44.5606209,20.1851982 C44.5606209,17.9673492 43.0640523,16.3732702 40.9410131,16.3732702 C38.6091503,16.3732702 36.973366,17.9673492 36.973366,20.1851982 C36.973366,22.4377011 38.6091503,24.0317801 40.9410131,24.0317801 C43.0640523,24.0387108 44.5606209,22.4446319 44.5606209,20.1851982 Z" id="Shape" fill="#FFFFFF"></path>
                <path d="M53.25,26.8770831 L55.8126327,22.8280897 C57.5922387,24.0393271 60.2260557,24.9391034 62.1836223,24.9391034 C63.4649387,24.9391034 63.9276362,24.6276423 63.9276362,24.0393271 C63.9276362,23.416405 62.8598726,23.0703372 61.1514508,22.7242694 C57.8057915,22.0321338 54.0686188,21.2361778 54.0686188,17.0141506 C54.0686188,13.5534725 56.9515806,10.8472222 61.7565169,10.8472222 C64.6038865,10.8472222 67.3444798,11.8508189 69.444415,13.2004833 L67.1309271,17.2840834 C65.6004659,16.3150936 63.5005308,15.3807105 61.7565169,15.3807105 C60.7955296,15.3807105 60.1548714,15.8652054 60.1548714,16.3843071 C60.1548714,16.9726224 60.9734902,17.0764428 62.8242805,17.4917241 C66.1699398,18.2184665 70.0138889,19.2912767 70.0138889,23.5202253 C70.0138889,27.2231509 66.9885586,29.5833333 62.0056617,29.5833333 C58.8023708,29.576412 55.4923036,28.5728153 53.25,26.8770831 Z" id="Path" fill="#FFFFFF"></path>
                <rect id="Rectangle" fill="#D12329" x="0" y="30.5694444" width="16.7638889" height="3.94444444"></rect>
                <rect id="Rectangle" fill="#E55725" x="17.75" y="30.5694444" width="16.7638889" height="3.94444444"></rect>
                <rect id="Rectangle" fill="#F79121" x="36.4861111" y="30.5694444" width="16.7638889" height="3.94444444"></rect>
                <rect id="Rectangle" fill="#FDB81A" x="54.2361111" y="30.5694444" width="16.7638889" height="3.94444444"></rect>
            </g>
        </g>
    </g>
</svg>