<?xml version="1.0" encoding="UTF-8"?>
<svg width="53px" height="16px" viewBox="0 0 53 16" version="1.1" xmlns="http://www.w3.org/2000/svg" xmlns:xlink="http://www.w3.org/1999/xlink">
    <!-- Generator: Sketch 52.6 (67491) - http://www.bohemiancoding.com/sketch -->
    <title>logo_ipad</title>
    <desc>Created with Sketch.</desc>
    <g id="Combined-Site-" stroke="none" stroke-width="1" fill="none" fill-rule="evenodd">
        <g id="Devices---Phone-Tablet" transform="translate(-873.000000, -1161.000000)" fill="#FFFFFF" fill-rule="nonzero">
            <g id="Group-14">
                <g id="logo_ipad" transform="translate(873.000000, 1161.000000)">
                    <path d="M19.3107692,2.22769231 C19.3627949,1.79474957 19.7300964,1.46894334 20.1661538,1.46894334 C20.6022113,1.46894334 20.9695128,1.79474957 21.0215385,2.22769231 C21.0612056,2.55779116 20.9073932,2.88125529 20.6263166,3.05883527 C20.3452399,3.23641526 19.9870678,3.23641526 19.7059911,3.05883527 C19.4249145,2.88125529 19.2711021,2.55779116 19.3107692,2.22769231 Z M19.5938462,5.19384615 L20.7384615,5.19384615 L20.7384615,14.6584615 L19.5938462,14.6584615 L19.5938462,5.19384615 Z" id="Shape"></path>
                    <path d="M28.3938462,1.98153846 C29.4750687,1.91018221 30.5353892,2.30342674 31.3086104,3.06254663 C32.0818316,3.82166652 32.494523,4.8745704 32.4430769,5.95692308 C32.4701211,7.02915733 32.0431392,8.06295986 31.2673391,8.8036028 C30.4915391,9.54424574 29.4390597,9.92285943 28.3692308,9.84615385 L25.0830769,9.84615385 L25.0830769,14.6215385 L23.8523077,14.6215385 L23.8523077,1.98153846 L28.3938462,1.98153846 Z M25.0830769,8.81230769 L28.0984615,8.81230769 C28.9086538,8.92264027 29.7260218,8.66764171 30.3297565,8.11619895 C30.9334913,7.56475619 31.261296,6.77377025 31.2246154,5.95692308 C31.2765817,5.1317225 30.9554335,4.32676654 30.349704,3.76396269 C29.7439744,3.20115884 28.9176252,2.93993618 28.0984615,3.05230769 L25.0830769,3.05230769 L25.0830769,8.81230769 Z" id="Shape"></path>
                    <path d="M34.1784615,12.0492308 C34.1784615,10.3876923 35.4092308,9.42769231 37.6,9.28 L40.6153846,9.09538462 L40.6153846,8.17230769 C40.6153846,6.81846154 39.8030769,6.06769231 38.2646154,6.06769231 C36.96,6.06769231 36.0246154,6.62153846 35.8030769,7.53230769 L34.5723077,7.53230769 C34.7938462,6.03076923 36.2584615,5.07076923 38.2646154,5.07076923 C40.48,5.07076923 41.7353846,6.30153846 41.7353846,8.20923077 L41.7353846,14.6953846 L40.6153846,14.6953846 L40.6153846,13.0338462 L40.5169231,13.0338462 C39.8905591,14.1667363 38.6709815,14.841091 37.3784615,14.7692308 C36.5865367,14.8661599 35.7901765,14.6273433 35.1822749,14.1106269 C34.5743732,13.5939105 34.21038,12.8464268 34.1784615,12.0492308 Z M40.6153846,11.1384615 L40.6153846,10.0307692 L37.8092308,10.2276923 C36.2092308,10.3507692 35.4338462,10.9415385 35.4338462,12.0246154 C35.4338462,13.1076923 36.3569231,13.7969231 37.6246154,13.7969231 C38.3761014,13.8508213 39.1175025,13.5989245 39.6806129,13.0983818 C40.2437234,12.5978392 40.5808058,11.891084 40.6153846,11.1384615 Z" id="Shape"></path>
                    <path d="M44.1230769,9.93230769 C44.1230769,7.00307692 45.7353846,5.00923077 48.1353846,5.00923077 C49.5130967,4.97116054 50.7753257,5.77528325 51.3230769,7.04 L51.4215385,7.04 L51.4215385,1.42769231 L52.5784615,1.42769231 L52.5784615,14.6584615 L51.4707692,14.6584615 L51.4707692,12.7753846 L51.36,12.7753846 C50.7826782,14.0269174 49.5129936,14.8119896 48.1353846,14.7692308 C45.7107692,14.7692308 44.1230769,12.8738462 44.1230769,9.93230769 Z M45.3538462,9.93230769 C45.3538462,12.2953846 46.5846154,13.7846154 48.4307692,13.7846154 C50.2769231,13.7846154 51.4461538,12.3076923 51.4461538,9.92 C51.4461538,7.53230769 50.2153846,6.08 48.3815385,6.08 C46.5476923,6.08 45.3046154,7.58153846 45.3046154,9.92 L45.3538462,9.93230769 Z" id="Shape"></path>
                    <path d="M6.83076923,1.31692308 C7.39838674,0.552871383 8.26940236,0.07246586 9.21846154,0 C9.31211216,0.894607216 9.02638735,1.78749724 8.43076923,2.46153846 C7.90475589,3.18054939 7.04137592,3.57257057 6.15384615,3.49538462 C6.05413021,2.7097162 6.29105017,1.91849296 6.80615385,1.31692308 L6.83076923,1.31692308 Z M6.30153846,4.35692308 C7.17944235,4.04484714 8.0866042,3.82218014 9.00923077,3.69230769 C10.191081,3.63437703 11.3184496,4.19340279 11.9876923,5.16923077 C10.9617374,5.76448827 10.3326117,6.86311077 10.3384615,8.04923077 C10.3424766,9.39427027 11.1453831,10.6083036 12.3815385,11.1384615 C12.3815385,11.1384615 10.9538462,15.1753846 9.02153846,15.1753846 C8.13538462,15.1753846 7.44615385,14.5723077 6.56,14.5723077 C5.67384615,14.5723077 4.66461538,15.2 4.09846154,15.2 C2.22769231,15.2 0,11.3723077 0,8.30769231 C0,5.24307692 1.88307692,3.69230769 3.69230769,3.69230769 C4.81230769,3.69230769 5.69846154,4.35692308 6.30153846,4.35692308 Z" id="Shape"></path>
                </g>
            </g>
        </g>
    </g>
</svg>