<?xml version="1.0" encoding="UTF-8"?>
<svg width="96px" height="16px" viewBox="0 0 96 16" version="1.1" xmlns="http://www.w3.org/2000/svg" xmlns:xlink="http://www.w3.org/1999/xlink">
    <!-- Generator: Sketch 52.6 (67491) - http://www.bohemiancoding.com/sketch -->
    <title>logo_androidtv</title>
    <desc>Created with Sketch.</desc>
    <g id="Combined-Site-" stroke="none" stroke-width="1" fill="none" fill-rule="evenodd">
        <g id="3.-PL-VP-Landing-1024" transform="translate(-526.000000, -2936.000000)" fill="#FFFFFF" fill-rule="nonzero">
            <g id="logo_androidtv" transform="translate(526.000000, 2936.000000)">
                <g id="g33674">
                    <path d="M6.73082707,12.7899301 C5.86191608,12.7764189 5.03445633,12.4335244 4.43146852,11.8370895 C3.82848072,11.2406545 3.49965692,10.439831 3.51772765,9.61174825 C3.48760537,7.88975072 4.92420389,6.4687641 6.73082707,6.43356643 C7.90073878,6.38963992 9.00094019,6.96339812 9.59291562,7.92615385 C9.64569289,8.00731832 9.67373927,8.10087599 9.67391813,8.19636364 L9.67391813,11.0013986 C9.68786868,11.0737062 9.68786868,11.1478323 9.67391813,11.2201399 C9.06750008,12.2166011 7.93910087,12.8184683 6.73082707,12.7899301 Z M12.5630075,15.208951 L12.5630075,4.05314685 L9.67391813,4.05314685 L9.67391813,4.99244755 C8.78586581,4.21647522 7.61040746,3.80908637 6.40681704,3.86013986 C4.83019318,3.87338452 3.32537846,4.49030323 2.23099224,5.57207451 C1.13660602,6.6538458 0.544581006,8.10959665 0.588137009,9.61174825 C0.529827404,11.1250781 1.11443304,12.5968514 2.20964259,13.6939679 C3.30485214,14.7910843 4.81807039,15.4207875 6.40681704,15.4405594 C7.6177852,15.4763088 8.79369924,15.0502371 9.67391813,14.2567832 L9.67391813,15.2218182 L12.5630075,15.208951 Z M25.118396,15.208951 L25.118396,9.17426573 C25.118396,6.27488666 22.6523041,3.92447552 19.6102256,3.92447552 C16.568147,3.92447552 14.1020551,6.27488666 14.1020551,9.17426573 L14.1020551,15.208951 L16.9911445,15.208951 L16.9911445,9.17426573 C16.9911445,8.28245086 17.4903385,7.45837992 18.300685,7.01247247 C19.1110315,6.56656502 20.1094196,6.56656502 20.9197661,7.01247247 C21.7301126,7.45837992 22.2293066,8.28245086 22.2293066,9.17426573 L22.2293066,15.208951 L25.118396,15.208951 Z M32.4626232,12.7899301 C31.5937122,12.7764189 30.7662525,12.4335244 30.1632647,11.8370895 C29.5602769,11.2406545 29.2314531,10.439831 29.2495238,9.61174825 C29.226611,8.20369032 30.1941287,6.95477949 31.6127752,6.56116818 C33.0314218,6.16755687 34.5510927,6.7263835 35.3247118,7.92615385 C35.377489,8.00731832 35.4055354,8.10087599 35.4057143,8.19636364 L35.4057143,11.0142657 C35.4195557,11.0822564 35.4195557,11.1521492 35.4057143,11.2201399 C34.808768,12.2003323 33.7057079,12.7996814 32.5166249,12.7899301 L32.4626232,12.7899301 Z M38.3488053,15.208951 L38.3488053,0.707692308 L35.4057143,0.707692308 L35.4057143,4.99244755 C34.5218055,4.2184628 33.3513301,3.81111769 32.1521136,3.86013986 C30.5634376,3.87656992 29.0488625,4.5030025 27.9511306,5.59767831 C26.8533988,6.69235413 26.2653052,8.16273662 26.3199332,9.67608392 C26.2800864,11.1806543 26.8747582,12.6376495 27.9708843,13.7210509 C29.0670105,14.8044522 30.5730873,15.4238184 32.1521136,15.4405594 C33.3592161,15.477168 34.5312754,15.0507309 35.4057143,14.2567832 L35.4057143,15.2218182 L38.3488053,15.208951 Z M42.7769424,15.208951 L42.7769424,9.25146853 C42.6743486,8.51146792 42.9379018,7.76799083 43.4903635,7.23892488 C44.0428253,6.70985894 44.8216274,6.4551227 45.5985297,6.54937063 L45.5985297,3.86013986 C41.8724144,3.86013986 39.887853,5.73874126 39.887853,9.2772028 L39.887853,15.2346853 L42.7769424,15.208951 Z M51.9167251,12.6355245 C50.1570915,12.6355245 48.7306266,11.2759729 48.7306266,9.59888112 C48.7306266,7.9217893 50.1570915,6.56223776 51.9167251,6.56223776 C53.6763588,6.56223776 55.1028237,7.9217893 55.1028237,9.59888112 C55.1064648,10.4109556 54.7686759,11.1905859 54.1649182,11.7636044 C53.5611605,12.3366228 52.741744,12.6552811 51.8897243,12.6483916 L51.9167251,12.6355245 Z M51.8897243,15.4405594 C55.2471002,15.4263612 57.9588207,12.8245919 57.9513818,9.62468191 C57.9439429,6.42477197 55.2201522,3.83448106 51.8627433,3.83446272 C48.5053343,3.83444438 45.7815125,6.42470553 45.7740351,9.62461538 C45.7740311,11.1693316 46.4187913,12.6505931 47.5660953,13.7416648 C48.7133992,14.8327365 50.2689854,15.443977 51.8897243,15.4405594 Z M60.7324979,3.21678322 C61.6592307,3.2097169 62.4065794,2.491681 62.4065497,1.60839161 C62.4065498,1.03836558 62.0874773,0.511639795 61.5695239,0.226626768 C61.0515704,-0.0583862582 60.4134254,-0.0583862582 59.895472,0.226626768 C59.3775185,0.511639795 59.0584461,1.03836558 59.0584461,1.60839161 C59.0584165,2.491681 59.8057651,3.2097169 60.7324979,3.21678322 Z M62.1770426,4.05314685 L59.2879532,4.05314685 L59.2879532,15.208951 L62.1770426,15.208951 L62.1770426,4.05314685 Z M69.6292732,12.7899301 C68.0304013,12.7738299 66.6685649,11.6783137 66.3833701,10.1787944 C66.0981752,8.67927508 66.9699055,7.197874 68.4611175,6.64791179 C69.9523295,6.09794958 71.6432405,6.63424302 72.4913617,7.92615385 C72.544139,8.00731832 72.5721854,8.10087599 72.5723642,8.19636364 L72.5723642,11.0271329 C72.5800599,11.0912595 72.5800599,11.1560132 72.5723642,11.2201399 C71.975418,12.2003323 70.8723578,12.7996814 69.6832749,12.7899301 L69.6292732,12.7899301 Z M75.5154553,15.208951 L75.5154553,0.707692308 L72.5723642,0.707692308 L72.5723642,4.99244755 C71.6843119,4.21647522 70.5088536,3.80908637 69.3052632,3.86013986 C67.7238134,3.87321763 66.2147414,4.493666 65.1195488,5.58107811 C64.0243561,6.66849021 63.4356244,8.13094218 63.4865831,9.63748252 C63.4394111,11.1454571 64.028559,12.6085022 65.1221739,13.6991846 C66.2157889,14.7898669 67.7225582,15.4171187 69.3052632,15.4405594 C70.517891,15.4714253 71.6935074,15.0408315 72.5723642,14.2439161 L72.5723642,15.208951 L75.5154553,15.208951 Z" id="path33676"></path>
                </g>
                <g id="g33678" transform="translate(77.714286, 0.727273)">
                    <path d="M13.2517007,14.3163636 L18.0408163,3.26909091 L15.6326531,3.26909091 L11.7142857,12.8527273 L12.5306122,12.8527273 L8.6122449,3.28181818 L6.13605442,3.28181818 L10.8843537,14.3163636 L13.2517007,14.3163636 Z M5.55102041,14.4436364 L5.55102041,12.4836364 L5.30612245,12.4836364 C4.55204957,12.533138 3.80994747,12.2869735 3.25766621,11.804138 C2.70538495,11.3213024 2.39270337,10.6453154 2.39455782,9.93818182 L2.39455782,5.10181818 L5.44217687,5.10181818 L5.44217687,3.28181818 L2.39455782,3.28181818 L2.39455782,0.303636364 L0.258503401,0.303636364 L0.258503401,9.9 C0.171209047,11.1601895 0.682020839,12.3923246 1.65476875,13.2679479 C2.62751667,14.1435712 3.96333333,14.5736868 5.30612245,14.4436364 L5.55102041,14.4436364 Z" id="path33680"></path>
                </g>
            </g>
        </g>
    </g>
</svg>