<?xml version="1.0" encoding="UTF-8"?>
<svg width="121px" height="17px" viewBox="0 0 121 17" version="1.1" xmlns="http://www.w3.org/2000/svg" xmlns:xlink="http://www.w3.org/1999/xlink">
    <!-- Generator: Sketch 52.6 (67491) - http://www.bohemiancoding.com/sketch -->
    <title>logo_chromecast</title>
    <desc>Created with Sketch.</desc>
    <g id="Combined-Site-" stroke="none" stroke-width="1" fill="none" fill-rule="evenodd">
        <g id="3.-PL-VP-Landing-1024" transform="translate(-360.000000, -2936.000000)" fill="#FFFFFF" fill-rule="nonzero">
            <g id="logo_chromecast" transform="translate(360.000000, 2936.000000)">
                <path d="M21.9365246,8.83010058 C21.8879627,7.53798531 22.388934,6.28313678 23.3224763,5.35852599 C24.2560186,4.4339152 25.5404174,3.92047471 26.8758027,3.9380781 C28.7030448,3.88545057 30.3711039,4.9393009 31.0571353,6.57977024 L29.4401849,7.32580367 C29.0480947,6.24948498 27.9779955,5.54559007 26.8000081,5.58913569 C25.9353723,5.64506465 25.1304775,6.03590255 24.5671129,6.67337689 C24.0037483,7.31085123 23.7294334,8.14119138 23.8061235,8.97686126 C23.6825448,10.7054038 25.016434,12.2093151 26.8000081,12.3523568 C28.0176425,12.397114 29.1358139,11.7046687 29.6044064,10.6156888 L31.2213568,11.2761118 C30.5021064,12.9234369 28.8106431,13.9730474 26.9642297,13.917804 C25.5927227,13.912228 24.2824756,13.3671349 23.3343424,12.4076872 C22.3862092,11.4482394 21.8816517,10.1568708 21.9365246,8.83010058 Z M34.2910361,4.20713934 L34.2026091,5.52798541 L34.2910361,5.52798541 C34.9795542,4.54209798 36.131499,3.95463962 37.3607153,3.96253821 C39.8240381,3.96253821 41.0241185,5.52798541 41.0241185,7.83946603 L41.0241185,13.5264422 L39.2303142,13.5264422 L39.2303142,8.08406715 C39.2303142,6.18840844 38.2070877,5.52798541 36.8427859,5.52798541 C35.3261792,5.65765543 34.1996703,6.94459568 34.3163009,8.41427867 L34.3163009,13.5264422 L32.4972317,13.5264422 L32.4972317,0 L34.2910361,0 L34.2910361,4.20713934 Z M42.9063498,13.5264422 L42.9063498,4.20713934 L44.6117271,4.20713934 L44.6117271,5.68697614 L44.7001541,5.68697614 C45.2241928,4.64608934 46.3086315,3.97926279 47.5045524,3.96253821 C47.9725798,3.94305762 48.4390685,4.02669283 48.8688543,4.20713934 L48.1867034,5.85819692 C47.8868157,5.75221208 47.5710563,5.6943766 47.2519039,5.68697614 C46.5373811,5.70828416 45.8630208,6.01187189 45.3857272,6.52710313 C44.9084336,7.04233437 44.6698251,7.72428287 44.725419,8.41427867 L44.725419,13.5264422 L42.9063498,13.5264422 Z M58.7474105,8.83010058 C58.8397524,10.5984492 57.9178436,12.272106 56.3496251,13.1831015 C54.7814065,14.094097 52.8222258,14.094097 51.2540073,13.1831015 C49.6857888,12.272106 48.76388,10.5984492 48.8562219,8.83010058 C48.76388,7.06175198 49.6857888,5.38809518 51.2540073,4.47709966 C52.8222258,3.56610413 54.7814065,3.56610413 56.3496251,4.47709966 C57.9178436,5.38809518 58.8397524,7.06175198 58.7474105,8.83010058 Z M56.9536062,8.83010058 C57.0606617,7.67246427 56.483231,6.55556557 55.461887,5.94473425 C54.440543,5.33390294 53.1504569,5.33390294 52.1291129,5.94473425 C51.1077689,6.55556557 50.5303382,7.67246427 50.6373938,8.83010058 C50.5303382,9.98773689 51.1077689,11.1046356 52.1291129,11.7154669 C53.1504569,12.3262982 54.440543,12.3262982 55.461887,11.7154669 C56.483231,11.1046356 57.0606617,9.98773689 56.9536062,8.83010058 Z M60.1875069,4.20713934 L61.854987,4.20713934 L61.854987,5.52798541 L61.943414,5.52798541 C62.5971245,4.54886602 63.7204581,3.95900669 64.9246662,3.96253821 C66.2429563,3.86610602 67.4779531,4.59432672 67.9943455,5.77258653 C68.6849135,4.6346309 69.9535711,3.94344939 71.3166732,3.96253821 C73.6157745,3.96253821 74.7147955,5.52798541 74.7147955,7.83946603 L74.7147955,13.5264422 L72.8830939,13.5264422 L72.8830939,8.08406715 C72.8830939,6.18840844 72.112516,5.52798541 70.7482141,5.52798541 C69.2569483,5.68853773 68.1665746,6.96613646 68.2848912,8.41427867 L68.2848912,13.5264422 L66.4910869,13.5264422 L66.4910869,8.08406715 C66.4910869,6.18840844 65.720509,5.52798541 64.3562071,5.52798541 C62.8497323,5.67012457 61.737769,6.95327923 61.854987,8.41427867 L61.854987,13.5264422 L60.09908,13.5264422 L60.09908,4.20713934 L60.1875069,4.20713934 Z M76.0412001,8.83010058 C75.9796183,7.57844099 76.4399737,6.3552979 77.3188611,5.4354135 C78.1977485,4.5155291 79.4214858,3.97602269 80.7151973,3.9380781 C83.532228,3.9380781 85.4018269,5.9193472 85.4018269,8.89125086 L85.4018269,9.22146238 L77.822372,9.22146238 C77.8122394,10.015998 78.1311724,10.7813734 78.7079509,11.3466741 C79.2847293,11.9119749 80.0713128,12.2301168 80.8920512,12.2300562 C82.0274684,12.2812794 83.0777527,11.648801 83.532228,10.6401489 L85.1491784,11.3005719 C84.4350732,12.9074143 82.7733498,13.923239 80.9678458,13.8566537 C79.6162454,13.8515158 78.3255498,13.3117205 77.395193,12.3624969 C76.4648362,11.4132734 75.9756779,10.1371213 76.0412001,8.83010058 Z M80.7151973,5.52798541 C79.3773289,5.54765776 78.2401568,6.47962546 77.9992259,7.75385564 L83.532228,7.75385564 C83.3668989,6.39780937 82.120574,5.41302862 80.7151973,5.52798541 Z M86.4250533,8.83010058 C86.3764913,7.53798531 86.8774627,6.28313678 87.811005,5.35852599 C88.7445473,4.4339152 90.0289461,3.92047471 91.3643314,3.9380781 C93.1936697,3.87820795 94.8656361,4.9345268 95.545664,6.57977024 L93.9287136,7.24019327 C93.5588576,6.13966029 92.4833847,5.40732118 91.2885368,5.44237501 C90.4248429,5.49814991 89.6210649,5.88940881 89.0596928,6.52732017 C88.4983207,7.16523154 88.2269831,7.99567288 88.3072846,8.83010058 C88.1618041,10.5656794 89.4960204,12.0872802 91.2885368,12.2300562 C92.5040611,12.2803949 93.6232615,11.5921933 94.0929351,10.5056183 L95.7098855,11.1660413 C94.9895256,12.8109096 93.2970813,13.8562667 91.4527584,13.7955034 C90.1000386,13.8366745 88.7899393,13.3344993 87.8329494,12.4079915 C86.8759595,11.4814837 86.3572628,10.2131138 86.3997884,8.90348092 L86.4250533,8.83010058 Z M96.6573174,10.7257593 C96.6573174,8.65887979 98.6153432,7.50925451 100.826018,7.50925451 C101.706719,7.47263598 102.58083,7.6715092 103.352503,8.08406715 L103.352503,7.75385564 C103.34791,7.12578715 103.072406,6.52815686 102.592588,6.10543053 C102.11277,5.68270419 101.472307,5.47335365 100.826018,5.52798541 C99.8845536,5.50765433 99.018694,6.02499296 98.6153432,6.84883148 L96.9983928,6.18840844 C97.913083,4.52565923 99.857981,3.65428387 101.7592,4.05541724 C103.66042,4.45655061 105.054451,6.03239804 105.171572,7.91284637 L105.171572,13.5264422 L103.466194,13.5264422 L103.466194,12.2300562 L103.377767,12.2300562 C102.676115,13.2397637 101.488754,13.8306926 100.232294,13.7955034 C99.333257,13.8843116 98.4366704,13.6063081 97.7581999,13.0283643 C97.0797294,12.4504205 96.6807807,11.6248438 96.6573174,10.7502194 L96.6573174,10.7257593 Z M103.377767,9.50275367 C102.696292,9.0733569 101.890237,8.86754233 101.078666,8.91571098 C99.2090672,8.91571098 98.4384893,9.90634553 98.4384893,10.7379893 C98.4384893,11.5696332 99.4617157,12.2300562 100.396515,12.2300562 C101.998672,12.2643396 103.329597,11.0413258 103.377767,9.49052362 L103.377767,9.50275367 Z M106.283225,11.1538113 L107.900175,10.4933882 C108.286325,11.5236469 109.294628,12.2118583 110.42666,12.2178262 C111.563579,12.2300562 112.384686,11.7163938 112.384686,10.88475 C112.384686,10.3955478 112.119405,9.89411547 111.121444,9.6617444 L109.163418,9.24592249 C108.317045,9.00132137 106.636933,8.34089833 106.636933,6.68984075 C106.636933,5.03878316 108.430737,3.97476827 110.42666,3.97476827 C111.937096,3.94428513 113.32195,4.78525344 113.951107,6.1150281 L112.384686,6.76322108 C111.997545,5.93646269 111.106279,5.44338989 110.174012,5.54021546 C109.150786,5.54021546 108.304413,5.95603737 108.304413,6.68984075 C108.304413,7.42364412 108.80971,7.60709496 109.567656,7.76608569 L111.437254,8.1819076 C112.907167,8.29820792 114.056384,9.45805339 114.115328,10.88475 C114.115328,12.5358076 112.586805,13.7710433 110.325601,13.7710433 C108.525181,13.8277027 106.886183,12.7714782 106.245328,11.1415812 L106.283225,11.1538113 Z M116.502857,10.652379 L116.502857,5.76035647 L114.797479,5.76035647 L114.797479,4.20713934 L116.502857,4.20713934 L116.502857,1.40645646 L118.296661,1.40645646 L118.296661,4.20713934 L120.595762,4.20713934 L120.595762,5.77258653 L118.296661,5.77258653 L118.296661,10.4811582 C118.296661,11.5451731 118.713531,11.960995 119.559904,11.960995 C119.853822,11.9961043 120.151471,11.9358901 120.406276,11.7897742 L121,13.281841 C120.540918,13.4531013 120.051784,13.5361809 119.559904,13.5264422 C118.731809,13.6424192 117.895113,13.3788325 117.296088,12.8132659 C116.697062,12.2476994 116.403888,11.4445253 116.502857,10.6401489 L116.502857,10.652379 Z M16.7067007,5.28338428 L10.7315638,5.28338428 C11.8843581,6.00059947 12.5833666,7.23439053 12.5885302,8.56103935 C12.5755689,8.84899503 12.5375367,9.13537867 12.4748384,9.41714328 C12.4082981,9.84812357 12.2582916,10.2630622 12.0327035,10.6401489 L8.24297608,16.9997781 L8.58405155,16.9997781 C10.9067017,17.0160733 13.1400063,16.1341933 14.7883296,14.5498531 C16.436653,12.965513 17.3636478,10.8097674 17.3635868,8.56103935 C17.3761007,7.43944784 17.1481236,6.32754096 16.6940683,5.29561434 L16.7067007,5.28338428 Z M8.68511095,12.3401267 C7.60074945,12.3115866 6.57119185,11.8724835 5.81755052,11.1171211 C5.54098434,10.86249 5.29902351,10.5748098 5.0975023,10.2610172 L5.00907533,10.1998669 L1.30777486,4.08483877 C-0.247464269,6.51179097 -0.427054562,9.53624372 0.830665977,12.1197567 C2.08838652,14.7032697 4.61220023,16.4941408 7.53556029,16.8774776 L10.5673422,11.8509245 C9.99609812,12.1732986 9.34631532,12.3421808 8.68511095,12.3401267 Z M8.68511095,0.110070506 C5.91784364,0.104076961 3.3135269,1.37611642 1.67411518,3.53448624 L4.65536743,8.42650873 C4.67864182,8.49815925 4.67864182,8.57499922 4.65536743,8.64664974 L4.65536743,8.48765901 C4.66134875,6.62077732 6.06167251,5.03220397 7.96506274,4.73303175 C8.2864739,4.65219578 8.61872343,4.61920432 8.95039187,4.6351913 L16.3782577,4.6351913 C14.8837385,1.85480983 11.9225172,0.103599754 8.68511095,0.0856103935 L8.68511095,0.110070506 Z M11.8305847,8.56103935 C11.8305847,10.2496577 10.4166524,11.6185534 8.67247852,11.6185534 C6.92830463,11.6185534 5.51437232,10.2496577 5.51437232,8.56103935 C5.51437232,6.86566649 6.93396036,5.49129524 8.68511095,5.49129524 C9.52797312,5.47772315 10.3400847,5.79759392 10.9337716,6.37698739 C11.5274585,6.95638086 11.8513457,7.74515875 11.8305847,8.56103935 Z" id="Shape"></path>
            </g>
        </g>
    </g>
</svg>