<svg xmlns="http://www.w3.org/2000/svg" viewBox="0 0 95.83 13.89"><defs><style>.cls-1{fill:#fff;}</style></defs><title>logo_chromecast</title><g id="Layer_2" data-name="Layer 2"><g id="Layer_1-2" data-name="Layer 1"><path class="cls-1" d="M17.4,7.22a3.86,3.86,0,0,1,3.91-4,3.46,3.46,0,0,1,3.31,2.16l-1.28.61a2.13,2.13,0,0,0-2.09-1.42,2.55,2.55,0,0,0-2.37,2.77,2.59,2.59,0,0,0,2.37,2.76,2.31,2.31,0,0,0,2.22-1.42l1.28.54a3.54,3.54,0,0,1-3.37,2.16A4,4,0,0,1,17.4,7.22Zm9.78-3.78-.07,1.08h.07a2.91,2.91,0,0,1,2.43-1.28c1.95,0,2.9,1.28,2.9,3.17v4.65H31.09V6.61c0-1.55-.81-2.09-1.89-2.09a2.2,2.2,0,0,0-2,2.36v4.18H25.76V0h1.42V3.44ZM34,11.06V3.44h1.35V4.65h.07a2.51,2.51,0,0,1,2.22-1.41,2.45,2.45,0,0,1,1.08.2l-.54,1.35a2.32,2.32,0,0,0-.74-.14,2.07,2.07,0,0,0-2,2.23v4.18ZM46.54,7.22a3.92,3.92,0,1,1-7.83,0,3.92,3.92,0,1,1,7.83,0Zm-1.42,0a2.51,2.51,0,1,0-5,0,2.51,2.51,0,1,0,5,0Zm2.56-3.78H49V4.52h.07a2.8,2.8,0,0,1,2.36-1.28,2.44,2.44,0,0,1,2.43,1.48,3,3,0,0,1,2.63-1.48c1.82,0,2.69,1.28,2.69,3.17v4.65H57.73V6.61c0-1.55-.61-2.09-1.69-2.09a2.2,2.2,0,0,0-1.95,2.36v4.18H52.67V6.61c0-1.55-.61-2.09-1.69-2.09A2.2,2.2,0,0,0,49,6.88v4.18H47.61V3.44ZM60.23,7.22a3.82,3.82,0,0,1,3.7-4c2.23,0,3.71,1.62,3.71,4.05v.27h-6A2.43,2.43,0,0,0,64.07,10,2.17,2.17,0,0,0,66.16,8.7l1.28.54a3.46,3.46,0,0,1-3.31,2.09,3.92,3.92,0,0,1-3.9-4.11Zm3.7-2.7a2.22,2.22,0,0,0-2.15,1.82h4.38A2.07,2.07,0,0,0,63.93,4.52Zm4.52,2.7a3.86,3.86,0,0,1,3.91-4,3.44,3.44,0,0,1,3.31,2.16l-1.28.54A2.13,2.13,0,0,0,72.3,4.45a2.54,2.54,0,0,0-2.36,2.77A2.58,2.58,0,0,0,72.3,10a2.3,2.3,0,0,0,2.22-1.41l1.28.54a3.53,3.53,0,0,1-3.37,2.15,3.88,3.88,0,0,1-4-4Zm8.1,1.55c0-1.69,1.55-2.63,3.3-2.63a3.8,3.8,0,0,1,2,.47V6.34a1.84,1.84,0,0,0-2-1.82A1.89,1.89,0,0,0,78.1,5.6l-1.28-.54a3.44,3.44,0,0,1,6.47,1.41v4.59H81.94V10h-.07a2.9,2.9,0,0,1-2.49,1.28,2.57,2.57,0,0,1-2.83-2.49Zm5.32-1a3,3,0,0,0-1.82-.48c-1.48,0-2.09.81-2.09,1.49S78.77,10,79.51,10A2.31,2.31,0,0,0,81.87,7.76Zm2.3,1.35,1.28-.54a2.14,2.14,0,0,0,2,1.41C88.35,10,89,9.58,89,8.9c0-.4-.21-.81-1-1l-1.55-.34c-.67-.2-2-.74-2-2.09s1.42-2.22,3-2.22A3,3,0,0,1,90.24,5L89,5.53a1.72,1.72,0,0,0-1.75-1c-.81,0-1.48.34-1.48.94s.4.75,1,.88l1.48.34A2.31,2.31,0,0,1,90.37,8.9c0,1.35-1.21,2.36-3,2.36a3.34,3.34,0,0,1-3.23-2.15Zm8.09-.41v-4H90.91V3.44h1.35V1.15h1.42V3.44H95.5V4.72H93.68V8.57c0,.87.33,1.21,1,1.21a1.06,1.06,0,0,0,.67-.14l.47,1.22a3,3,0,0,1-1.14.2A2.13,2.13,0,0,1,92.26,8.7Zm-79-4.39H8.53A3.2,3.2,0,0,1,10,7a4.19,4.19,0,0,1-.09.7v0a2.83,2.83,0,0,1-.35,1l-3,5.2h.27A6.9,6.9,0,0,0,13.78,7a6.63,6.63,0,0,0-.53-2.67ZM6.91,10.09a3.28,3.28,0,0,1-2.27-1,3.56,3.56,0,0,1-.57-.7L4,8.34l-2.93-5A6.89,6.89,0,0,0,6,13.8L8.4,9.69a2.94,2.94,0,0,1-1.49.4Zm0-10a6.87,6.87,0,0,0-5.55,2.8l2.36,4a.3.3,0,0,1,0,.18V6.94A3.12,3.12,0,0,1,6.34,3.87h0a2.59,2.59,0,0,1,.78-.08H13A6.91,6.91,0,0,0,6.91.07ZM9.4,7a2.49,2.49,0,0,1-5,0A2.51,2.51,0,0,1,6.91,4.49,2.45,2.45,0,0,1,9.4,7Z"/></g></g></svg>