<?xml version="1.0" encoding="UTF-8"?>
<svg width="80px" height="16px" viewBox="0 0 80 16" version="1.1" xmlns="http://www.w3.org/2000/svg" xmlns:xlink="http://www.w3.org/1999/xlink">
    <!-- Generator: Sketch 52.6 (67491) - http://www.bohemiancoding.com/sketch -->
    <title>logo_iphone</title>
    <desc>Created with Sketch.</desc>
    <g id="Combined-Site-" stroke="none" stroke-width="1" fill="none" fill-rule="evenodd">
        <g id="Devices---Phone-Tablet" transform="translate(-748.000000, -1161.000000)" fill="#FFFFFF">
            <g id="Group-14">
                <g id="logo_iphone" transform="translate(748.000000, 1161.000000)">
                    <path d="M21,2.90534208 C21,2.40533546 21.4477153,2 22,2 C22.5522847,2 23,2.40533546 23,2.90534208 C23,3.40534871 22.5522847,3.81068416 22,3.81068416 C21.7347835,3.81068416 21.4804296,3.71530018 21.2928932,3.54551561 C21.1053568,3.37573103 21,3.14545373 21,2.90534208 Z M21.3333333,5.91002812 L22.6811594,5.91002812 L22.6811594,16 L21.3333333,16 L21.3333333,5.91002812 Z" id="Shape" fill-rule="nonzero"></path>
                    <path d="M30.269928,2.0090762 C31.5291661,1.93045795 32.7640673,2.36537763 33.6659124,3.20510754 C34.5677575,4.04483746 35.051308,5.21000985 34.9956786,6.40933753 C35.0226885,7.59489398 34.5244952,8.73663028 33.6228677,9.55548212 C32.7212402,10.374334 31.499261,10.7948463 30.2556075,10.7142372 L26.4320456,10.7142372 L26.4320456,16 L25,16 L25,2.0090762 L30.269928,2.0090762 Z M26.4320456,9.56989676 L29.9405575,9.56989676 C30.8821925,9.687043 31.8301962,9.40306165 32.5313815,8.79379671 C33.2325669,8.18453177 33.6155161,7.31203867 33.5779534,6.40933753 C33.6331154,5.4973648 33.2578293,4.60950901 32.5543678,3.98772762 C31.8509063,3.36594622 30.8925824,3.07503983 29.9405575,3.19428591 L26.4320456,3.19428591 L26.4320456,9.56989676 Z" id="Shape" fill-rule="nonzero"></path>
                    <path d="M37,2 L38.4291929,2 L38.4291929,7.79534884 L38.5578203,7.79534884 C39.183876,6.51247295 40.622056,5.72200365 42.1593864,5.81581395 C43.2289709,5.75512078 44.2729988,6.12988445 45.0097951,6.8389951 C45.7465914,7.54810576 46.1002413,8.51850111 45.9753314,9.48837209 L45.9753314,16 L44.646182,16 L44.646182,9.80093023 C44.646182,7.91255814 43.645747,6.9227907 41.7877962,6.9227907 C40.8719254,6.88373788 39.9813135,7.20279534 39.3398465,7.79975705 C38.6983794,8.39671875 38.3670659,9.21480876 38.4291929,10.0483721 L38.4291929,16 L37,16 L37,2 Z" id="Path"></path>
                    <path d="M47,10.5 C47,7.13125 48.9170243,5 51.9928469,5 C55.0686695,5 57,7.09 57,10.5 C57,13.91 55.0686695,16 51.9928469,16 C48.9170243,16 47,13.8825 47,10.5 Z M55.583691,10.5 C55.583691,7.81875 54.1530758,6.21 51.9642346,6.21 C49.7753934,6.21 48.3447783,7.81875 48.3447783,10.5 C48.3447783,13.18125 49.6895565,14.80375 51.9642346,14.80375 C54.2389127,14.80375 55.6123033,13.1675 55.6123033,10.5 L55.583691,10.5 Z" id="Shape" fill-rule="nonzero"></path>
                    <path d="M59.0583296,5.19621349 L60.312415,5.19621349 L60.312415,7.14904357 L60.4436565,7.14904357 C61.2702911,5.52271337 63.1649611,4.67499205 64.9880193,5.11578547 C66.8110775,5.55657888 68.0657437,7.1657716 67.997334,8.9754314 L67.997334,16 L66.6265894,16 L66.6265894,9.31261069 C66.6265894,7.26143666 65.6495694,6.20775137 63.7101116,6.20775137 C62.7864611,6.17669928 61.8930743,6.5274702 61.2550604,7.17167932 C60.6170465,7.81588843 60.2952462,8.69210435 60.3707446,9.5795443 L60.3707446,16 L59,16 L59.0583296,5.19621349 Z" id="Path"></path>
                    <path d="M79.8005908,13.2350539 C79.1614095,15.0372861 77.4233479,16.1658584 75.5731167,15.9800719 C72.7680945,15.9800719 71,13.866408 71,10.4900359 C71,7.11366383 72.7813885,5 75.5598227,5 C78.338257,5 80,7.12738892 80,10.352785 L80,10.9155137 L72.2762186,10.9155137 C72.3426883,13.2899543 73.605613,14.8271643 75.5997046,14.8271643 C76.8026321,14.9688869 77.9673747,14.3377013 78.5376662,13.2350539 L79.8005908,13.2350539 Z M72.2895126,9.8586818 L78.6706056,9.8586818 C78.7685274,8.94679628 78.4872922,8.03481325 77.8967466,7.34923009 C77.3062011,6.66364693 76.4617492,6.268784 75.5731167,6.26270826 C74.6690436,6.26893148 73.8067761,6.65666226 73.1865945,7.33584176 C72.5664129,8.01502126 72.2422908,8.92654134 72.2895126,9.8586818 Z" id="Shape" fill-rule="nonzero"></path>
                    <path d="M7.17196819,1.38623482 C7.76793836,0.581969877 8.68246147,0.0762798526 9.67892644,0 C9.77725493,0.941691806 9.47725809,1.88157604 8.85188867,2.59109312 C8.29960081,3.34794673 7.39309474,3.7606006 6.4612326,3.67935223 C6.35653582,2.85233285 6.60529,2.01946627 7.14612326,1.38623482 L7.17196819,1.38623482 Z M6.61630219,4.58623482 C7.53805764,4.25773383 8.4905325,4.02334751 9.45924453,3.88663968 C10.7001286,3.82566003 11.8838096,4.4141082 12.5864811,5.44129555 C11.5092795,6.06788238 10.8487288,7.22432713 10.8548708,8.47287449 C10.8590864,9.88870555 11.7020984,11.1666354 13,11.7246964 C13,11.7246964 11.500994,15.9740891 9.472167,15.9740891 C8.5417495,15.9740891 7.81809145,15.3392713 6.88767396,15.3392713 C5.95725646,15.3392713 4.89761431,16 4.30318091,16 C2.3389662,16 0,11.9708502 0,8.74493927 C0,5.51902834 1.97713718,3.88663968 3.87673956,3.88663968 C5.0526839,3.88663968 5.98310139,4.58623482 6.61630219,4.58623482 Z" id="Shape" fill-rule="nonzero"></path>
                </g>
            </g>
        </g>
    </g>
</svg>