<?xml version="1.0" encoding="UTF-8"?>
<svg width="77px" height="17px" viewBox="0 0 77 17" version="1.1" xmlns="http://www.w3.org/2000/svg" xmlns:xlink="http://www.w3.org/1999/xlink">
    <!-- Generator: Sketch 52.6 (67491) - http://www.bohemiancoding.com/sketch -->
    <title>logo_android</title>
    <desc>Created with Sketch.</desc>
    <g id="Combined-Site-" stroke="none" stroke-width="1" fill="none" fill-rule="evenodd">
        <g id="Devices---Phone-Tablet" transform="translate(-971.000000, -1160.000000)" fill="#FFFFFF" fill-rule="nonzero">
            <g id="Group-14">
                <g id="logo_android" transform="translate(971.000000, 1160.000000)">
                    <path d="M0.00047128605,10.6515813 C-0.00821843914,9.80195004 0.139279301,8.9581738 0.435338364,8.16387868 C0.713227896,7.41921015 1.1273798,6.73511912 1.65577178,6.14798175 C2.19326808,5.57995546 2.83727293,5.12779488 3.54954776,4.81834759 C4.30357678,4.47153181 5.12107554,4.291252 5.94833067,4.28935336 C6.55869961,4.27629902 7.16654211,4.37309682 7.74391087,4.57529619 C8.32184514,4.79809634 8.85447512,5.12768394 9.31504353,5.54750181 L9.31504353,4.56099905 L12.2749453,4.56099905 L12.2749453,16.7278664 L9.31504353,16.7278664 L9.31504353,15.7270665 C8.85447512,16.1468844 8.32184514,16.476472 7.74391087,16.6992721 C7.16740015,16.9063316 6.55953453,17.0079732 5.94833067,16.9995121 C5.12474296,17.0041243 4.30876213,16.8387694 3.54954776,16.5134093 C2.83662492,16.1987108 2.19271822,15.741758 1.65577178,15.169478 C1.12434885,14.5738505 0.710042224,13.8797969 0.435338364,13.1249868 C0.138093647,12.336 -0.00947494503,11.49667 0.00047128605,10.6515813 Z M6.32708587,14.1257867 C6.55761025,14.1190271 6.78734357,14.0951351 7.01445641,14.0543009 C7.28089686,13.9938137 7.539735,13.9026812 7.78599478,13.7826553 C8.05836592,13.6552624 8.31306492,13.4918193 8.54350517,13.2965525 C8.8128818,13.0762887 9.05333142,12.821615 9.25893165,12.538804 L9.25893165,8.75006148 C9.05323329,8.47155448 8.81272347,8.22162335 8.54350517,8.00661013 C8.30986148,7.81187587 8.05581573,7.64405708 7.78599478,7.50621018 C7.5418377,7.38420507 7.28214538,7.29758405 7.01445641,7.24886163 C6.78909322,7.19268374 6.5588682,7.15916336 6.32708587,7.14878164 C5.88444416,7.14689326 5.44581699,7.23435832 5.03651261,7.40613019 C4.64772338,7.58525889 4.29555087,7.83748002 3.99844281,8.14958154 C3.69361411,8.46132635 3.45905567,8.8369908 3.31107227,9.25046143 C3.1332826,9.70483575 3.04739665,10.1911355 3.0585688,10.6801756 C3.04542349,11.1693696 3.13138064,11.6560724 3.31107227,12.1098897 C3.63164712,12.9081213 4.25330923,13.541712 5.03651261,13.8684381 C5.44581699,14.04021 5.88444416,14.127675 6.32708587,14.1257867 Z M19.6396296,7.33464448 C18.9678094,7.29973316 18.3105867,7.54256756 17.8167961,8.00815547 C17.3230055,8.47374338 17.0344224,9.12269538 17.0163992,9.80804995 L17.0163992,16.7278664 L14.0985814,16.7278664 L14.0985814,9.89383279 C14.158924,6.80774567 16.611272,4.32732437 19.6396296,4.28935336 L19.7237975,4.28935336 C22.7634969,4.28818171 25.251394,6.75408713 25.3349856,9.85094137 L25.3349856,16.7278664 L22.290916,16.7278664 L22.290916,9.80804995 C22.2771412,9.11606725 21.9858775,8.46003219 21.4849502,7.9927133 C20.9840229,7.52539441 20.3171522,7.28757835 19.6396296,7.33464448 Z M26.6536148,10.6515813 C26.649401,9.80104315 26.8016622,8.95723706 27.1025098,8.16387868 C27.3697636,7.41391532 27.7851376,6.72780566 28.3229432,6.14798175 C28.8532698,5.57788872 29.4931541,5.12526851 30.2026912,4.81834759 C30.9567203,4.47153181 31.774219,4.291252 32.6014742,4.28935336 C33.2163446,4.27756648 33.8285792,4.37430792 34.4110823,4.57529619 C34.9862484,4.79509342 35.5148,5.12510388 35.968187,5.54750181 L35.968187,0.915227989 L38.9280887,0.915227989 L38.9280887,16.7278664 L35.968187,16.7278664 L35.968187,15.7270665 C35.5177777,16.1500315 34.9881402,16.4758569 34.4110823,16.684975 C33.82949,16.8911026 33.2171848,16.9926928 32.6014742,16.9852149 C31.7778864,16.9898272 30.9619056,16.8244723 30.2026912,16.4991121 C29.4919137,16.1879818 28.851934,15.7304264 28.3229432,15.1551808 C27.7851376,14.5753569 27.3697636,13.8892473 27.1025098,13.1392839 C26.798721,12.3467753 26.6463557,11.5023917 26.6536148,10.6515813 Z M32.9942573,14.1257867 C33.2201295,14.118946 33.4451935,14.095052 33.6675999,14.0543009 C33.9346377,13.9959807 34.1937209,13.9047618 34.4391383,13.7826553 C34.7160302,13.6556321 34.9754138,13.4922091 35.2106766,13.2965525 C35.4720203,13.0720103 35.7073449,12.8177799 35.9120751,12.538804 L35.9120751,8.75006148 C35.7072666,8.47543781 35.4718942,8.2259535 35.2106766,8.00661013 C34.9720957,7.81174121 34.7133891,7.64395079 34.4391383,7.50621018 C34.1955603,7.3827587 33.9356608,7.29606856 33.6675999,7.24886163 C33.4469712,7.19278958 33.2214093,7.15926396 32.9942573,7.14878164 C32.5513661,7.14416646 32.1122113,7.23173673 31.7036841,7.40613019 C31.3105565,7.58489666 30.9537177,7.83705222 30.6515863,8.14958154 C30.3513882,8.46507922 30.117496,8.83967664 29.9642157,9.25046143 C29.7864261,9.70483575 29.7005401,10.1911355 29.7117123,10.6801756 C29.698567,11.1693696 29.7845241,11.6560724 29.9642157,12.1098897 C30.1205407,12.5233623 30.3539628,12.9020618 30.6515863,13.2250667 C30.9505886,13.5377754 31.3084293,13.7857761 31.7036841,13.954221 C32.1122113,14.1286144 32.5513661,14.2161847 32.9942573,14.2115695 L32.9942573,14.1257867 Z M52.8017513,14.1257867 C53.2309057,14.1290024 53.6560409,14.0413702 54.0502407,13.8684381 C54.4410595,13.7137292 54.7915212,13.469081 55.0742825,13.153581 C55.3763932,12.839627 55.6105549,12.464598 55.761653,12.0527011 C56.1124091,11.1330782 56.1124091,10.1128958 55.761653,9.19327287 C55.6001733,8.7833953 55.3619421,8.40947958 55.0602545,8.09239298 C54.7652724,7.78787277 54.4182404,7.54077361 54.0362127,7.36323877 C53.242657,7.02082558 52.3468176,7.02082558 51.553262,7.36323877 C51.1554236,7.55260759 50.7979572,7.81977964 50.5011642,8.14958154 C50.2084546,8.4710382 49.975542,8.84406672 49.8137937,9.25046143 C49.4630376,10.1700844 49.4630376,11.1902667 49.8137937,12.1098897 C49.9767496,12.4985978 50.2099186,12.8526375 50.5011642,13.153581 C50.7839255,13.469081 51.1343872,13.7137292 51.525206,13.8684381 C51.9286842,14.0432589 52.3633542,14.1308874 52.8017513,14.1257867 Z M52.8017513,16.9852149 C51.1514574,16.9900034 49.5632025,16.3445602 48.3689127,15.1837751 C47.7776143,14.6107563 47.3011876,13.9261048 46.9661157,13.1678782 C46.6368599,12.3766975 46.4697795,11.5252659 46.4751367,10.6658784 C46.4696288,9.81571796 46.6367933,8.97359338 46.9661157,8.19247297 C47.3053994,7.4367128 47.7812909,6.7528304 48.3689127,6.17657603 C48.9470783,5.60194817 49.6280561,5.14572314 50.3749125,4.83264474 C51.139238,4.48537603 51.9649891,4.30051686 52.8017513,4.28935336 C53.6390929,4.28327866 54.4691114,4.44857826 55.2426181,4.77545617 C55.9833618,5.0922762 56.6590818,5.54816681 57.2345899,6.11938746 C57.8222117,6.69564183 58.2981032,7.37952423 58.6373869,8.1352844 C58.9651698,8.91689406 59.1322688,9.75868855 59.1283659,10.6086899 C59.1337231,11.4680773 58.9666428,12.3195089 58.6373869,13.1106896 C58.3023151,13.8689163 57.8258884,14.5535678 57.2345899,15.1265866 C56.0438065,16.2839507 54.4612256,16.9291298 52.8157793,16.9280264 L52.8017513,16.9852149 Z M61.8778481,3.63168486 C61.6447859,3.63035 61.4148798,3.57665223 61.2045055,3.4744163 C60.9915153,3.39008882 60.7997768,3.25818188 60.6433867,3.08839348 C60.4771249,2.92569038 60.3436923,2.73141485 60.2506035,2.51650783 C60.1625188,2.29859066 60.1149507,2.06588288 60.1103238,1.83024504 C60.1338052,1.58020465 60.2053015,1.33731085 60.3207434,1.11538797 C60.4168795,0.898000928 60.549839,0.699574336 60.7135265,0.529205171 C60.8774098,0.36862167 61.0672291,0.238035064 61.2746453,0.143182353 C61.4859773,0.0454243377 61.7159345,-0.00340265591 61.9479879,0.000210938793 C62.1845856,-0.00363517328 62.4191597,0.0451556858 62.6353585,0.143182353 C62.8455738,0.232830205 63.0362835,0.364029361 63.1964773,0.529205171 C63.3601648,0.699574336 63.4931244,0.898000928 63.5892604,1.11538797 C63.6787403,1.33786707 63.7263288,1.57552514 63.7295401,1.8159479 C63.7262567,2.0517387 63.6786368,2.28470008 63.5892604,2.50221069 C63.4961716,2.71711771 63.3627391,2.91139324 63.1964773,3.07409634 C63.0400872,3.24388474 62.8483486,3.37579168 62.6353585,3.46011916 C62.4201048,3.56263132 62.1855795,3.61629007 61.9479879,3.61738772 L61.8778481,3.63168486 Z M60.475051,4.57529619 L63.4349528,4.57529619 L63.4349528,16.7278664 L60.4049112,16.7278664 L60.475051,4.57529619 Z M64.7956659,10.6658784 C64.7869762,9.81624719 64.9344739,8.97247094 65.230533,8.17817583 C65.5084225,7.43350729 65.9225744,6.74941626 66.4509664,6.16227889 C66.9833501,5.59463323 67.6227072,5.14238591 68.3307144,4.83264474 C69.0665725,4.48908507 69.8641217,4.30412458 70.6733854,4.28935336 C71.2837543,4.27629902 71.8915969,4.37309682 72.4689656,4.57529619 C73.0468999,4.79809634 73.5795299,5.12768394 74.0400983,5.54750181 L74.0400983,0.915227989 L77,0.915227989 L77,16.7278664 L74.0400983,16.7278664 L74.0400983,15.7270665 C73.5826347,16.1476613 73.0489171,16.4730651 72.4689656,16.684975 C71.8924549,16.8920345 71.2845893,16.993676 70.6733854,16.9852149 C69.8451165,16.9913657 69.024252,16.8259882 68.2605745,16.4991121 C67.5519191,16.1841161 66.9126614,15.7270769 66.3808265,15.1551808 C65.8524345,14.5680435 65.4382826,13.8839524 65.1603931,13.1392839 C64.8613944,12.3458199 64.7137959,11.5014673 64.725526,10.6515813 L64.7956659,10.6658784 Z M71.1222805,14.1400838 C71.3669546,14.1368809 71.6109449,14.1129701 71.8517349,14.0685981 C72.1233191,14.010439 72.3870643,13.919237 72.6373013,13.7969524 C72.9078986,13.6662438 73.1622043,13.503053 73.3948116,13.3108496 C73.6641883,13.0905859 73.9046379,12.8359121 74.1102381,12.5531011 L74.1102381,8.75006148 C73.9045398,8.47155448 73.6640299,8.22162335 73.3948116,8.00661013 C73.1589588,7.81498244 72.905242,7.64738096 72.6373013,7.50621018 C72.3893219,7.3814358 72.1246041,7.29471526 71.8517349,7.24886163 C71.1772186,7.0913053 70.4713326,7.15125785 69.8317072,7.42042733 C69.442918,7.59955604 69.0907455,7.85177716 68.7936374,8.16387868 C68.489015,8.4785705 68.2503783,8.85312278 68.0922389,9.26475857 C67.9144492,9.71913289 67.8285633,10.2054326 67.8397354,10.6944727 C67.8265901,11.1836667 67.9125473,11.6703695 68.0922389,12.1241869 C68.2537005,12.538319 68.4918274,12.916925 68.7936374,13.2393639 C69.0875225,13.5516971 69.4407172,13.7997858 69.8317072,13.9685181 C70.2406853,14.1413941 70.6795327,14.228903 71.1222805,14.2258666 L71.1222805,14.1400838 Z M46.2927731,7.29175306 C44.3008013,7.29175306 43.4871791,8.33544438 43.4871791,9.80804995 L43.4871791,16.7278664 L40.4150536,16.7278664 L40.4150536,9.89383279 C40.3386884,8.31558094 40.9475027,6.78301819 42.0796866,5.70346657 C43.2118706,4.62391495 44.7527429,4.10672454 46.2927731,4.28935336 L46.2927731,7.29175306 Z" id="Shape"></path>
                </g>
            </g>
        </g>
    </g>
</svg>