<?xml version="1.0" encoding="UTF-8"?>
<svg width="48px" height="16px" viewBox="0 0 48 16" version="1.1" xmlns="http://www.w3.org/2000/svg" xmlns:xlink="http://www.w3.org/1999/xlink">
    <!-- Generator: Sketch 52.6 (67491) - http://www.bohemiancoding.com/sketch -->
    <title>logo_firetv</title>
    <desc>Created with Sketch.</desc>
    <g id="Combined-Site-" stroke="none" stroke-width="1" fill="none" fill-rule="evenodd">
        <g id="3.-PL-VP-Landing-1024" transform="translate(-666.000000, -2934.000000)" fill="#FFFFFF">
            <g id="logo_firetv" transform="translate(666.000000, 2934.000000)">
                <path d="M23.6192332,16 C23.2925703,15.9998767 22.9664342,15.9739377 22.6439064,15.9224281 C21.0843775,15.7280615 19.7342053,14.751835 19.067708,13.3366991 C17.9850857,11.2100648 18.0288897,8.68906566 19.1847472,6.60087481 C19.907226,5.20497387 21.364177,4.33789749 22.9430066,4.36421916 C23.337298,4.36737001 23.7299507,4.41508148 24.1133988,4.50643426 C25.3329518,4.80234193 26.3347723,5.66360678 26.8053008,6.82066178 C27.2743651,7.98152921 27.482953,9.23018222 27.4165056,10.4794684 L27.4165056,10.5699689 L20.303122,10.5699689 C20.2897106,11.4570621 20.5582117,12.3257413 21.0703791,13.0522689 C21.6870273,13.862964 22.6489075,14.3411041 23.6712506,14.3451334 L23.8273029,14.3451334 C24.6794381,14.3402175 25.5179112,14.1318196 26.2721221,13.7374871 L26.5712223,13.5823433 L27.2084359,14.8752079 L27.1434141,14.8752079 C26.6701852,15.1834102 26.152845,15.4187807 25.6088999,15.5733547 C24.9704629,15.8123169 24.2999861,15.9560876 23.6192332,16 Z M25.4268389,9.05731743 C25.4476214,8.27306646 25.2151931,7.50281602 24.7636166,6.85944772 C24.3437685,6.2664274 23.6594365,5.91419063 22.9300022,5.9156566 C22.431809,5.91751384 21.9478297,6.08092721 21.5515403,6.38108784 C20.9417061,6.83281343 20.5278515,7.49852248 20.3941525,8.24281277 C20.3941525,8.43674245 20.3941525,8.63067213 20.303122,8.83753046 C20.2120915,9.04438879 20.303122,8.95388827 20.303122,9.0185315 L25.4268389,9.05731743 Z" id="Shape" fill-rule="nonzero"></path>
                <path d="M1.536,16 L1.536,6.77559758 L0,6.77559758 L0,5.25275984 L1.536,5.25275984 L1.536,4.31658909 C1.50139153,3.78031335 1.50139153,3.24265115 1.536,2.70637541 C1.58121902,1.93387174 1.96852218,1.21103651 2.60945686,0.702951417 C3.25039155,0.194866324 4.09022048,-0.0550770159 4.93714286,0.0102036576 L5.376,0.0102036576 C5.70488921,0.0400416062 6.03054623,0.0943123848 6.34971429,0.172473254 L6.85714286,0.284813743 L6.85714286,0.309778296 L6.44571429,1.83261604 L6.36342857,1.83261604 L6.06171429,1.75772238 C5.87351102,1.70565525 5.68083297,1.66807617 5.48571429,1.64538189 L5.11542857,1.64538189 C4.93789243,1.62433845 4.75810757,1.62433845 4.58057143,1.64538189 C4.06241863,1.75434356 3.6770492,2.15019016 3.62057143,2.63148175 C3.56335135,2.93257676 3.53125964,3.23718269 3.52457143,3.54268794 C3.52457143,3.94212079 3.52457143,4.34155364 3.52457143,4.7909156 L3.52457143,5.25275984 L6.51428571,5.25275984 L5.89714286,6.77559758 L3.52457143,6.77559758 L3.52457143,16 L1.536,16 Z" id="Path"></path>
                <path d="M12.1904762,16 L12.1904762,5.35094418 L13.7754958,5.35094418 L13.9816772,6.58920648 L14.0203363,6.4901455 C14.162086,6.34155402 14.3038357,6.19296254 14.4584718,6.05675369 C15.1158441,5.43783984 15.9994411,5.09110412 16.9197624,5.09090909 L17.2419209,5.09090909 C17.459961,5.11453925 17.6755117,5.15596425 17.8862378,5.21473532 L18.1826236,5.28903106 L18.2857143,5.28903106 L17.6027383,6.98545042 L17.512534,6.98545042 C17.2318038,6.85191143 16.923691,6.78000897 16.6104903,6.77494583 C16.1390949,6.80306115 15.6885939,6.97188878 15.3218564,7.25786813 L14.4842444,7.91414715 L14.0203363,8.19894748 L14.0203363,16 L12.1904762,16 Z" id="Path"></path>
                <rect id="Rectangle" x="7.61904762" y="5.09090909" width="1.52380952" height="10.9090909"></rect>
                <path d="M8.73045947,2.89775371 C8.43792034,2.90385469 8.15513264,2.79785893 7.94598963,2.60371519 C7.73684663,2.40957146 7.61899694,2.14366265 7.61906762,1.8660684 C7.61723112,1.56472221 7.74193436,1.27508146 7.96563067,1.06112712 C8.16415135,0.872263217 8.42650545,0.755846391 8.70655857,0.73234829 C9.01520446,0.703209049 9.32227894,0.800486885 9.55054301,0.99971333 C9.77880708,1.19893977 9.90653661,1.48115423 9.90160356,1.77537079 C9.92477878,2.06651957 9.81965335,2.35374988 9.61127478,2.56862534 C9.4028962,2.78350081 9.10992384,2.90678031 8.80216217,2.90909091 L8.73045947,2.89775371 Z" id="Path"></path>
                <g id="Ka0Vkh" transform="translate(27.428571, 4.363636)">
                    <path d="M19.9671429,0.323232323 L19.62,1.21535354 C18.6942857,3.49090909 17.7771429,5.76646465 16.8685714,8.0420202 L15.5828571,11.3389899 C15.5602009,11.3854659 15.5175144,11.4188528 15.4671429,11.4294949 L13.9242857,11.4294949 L9.38571429,0.336161616 L8.87142857,1.97818182 L5.91428571,1.97818182 L5.91428571,11.4294949 L3.85714286,11.4294949 L3.85714286,1.99111111 L0.681428571,1.99111111 L0.681428571,0.323232323 L11.5714286,0.323232323 C11.5654069,0.36178386 11.5654069,0.401044423 11.5714286,0.43959596 L12.4328571,2.68929293 L14.5285714,8.28767677 L14.6442857,8.5979798 L14.6442857,8.49454545 C14.8371429,7.92565657 15.03,7.35676768 15.2485714,6.80080808 L17.7171429,0.336161616 L19.9671429,0.323232323 Z" id="Path"></path>
                </g>
            </g>
        </g>
    </g>
</svg>