<?xml version="1.0" encoding="UTF-8"?>
<svg width="35px" height="16px" viewBox="0 0 35 16" version="1.1" xmlns="http://www.w3.org/2000/svg" xmlns:xlink="http://www.w3.org/1999/xlink">
    <!-- Generator: Sketch 52.6 (67491) - http://www.bohemiancoding.com/sketch -->
    <title>logo_apple-tv</title>
    <desc>Created with Sketch.</desc>
    <g id="Combined-Site-" stroke="none" stroke-width="1" fill="none" fill-rule="evenodd">
        <g id="3.-PL-VP-Landing-1024" transform="translate(-187.000000, -2936.000000)" fill="#FFFFFF" fill-rule="nonzero">
            <g id="logo_apple-tv" transform="translate(187.000000, 2936.000000)">
                <path d="M20.0097339,1.45454545 L20.0097339,4.00580865 L23.4574951,4.00580865 L23.4574951,4.9242634 L20.0097339,4.9242634 L20.0097339,12.578053 C19.9715849,13.1928725 20.1129103,13.8058188 20.4185594,14.3511809 C20.7162566,14.7774102 21.2390544,15.0172043 21.7813108,14.9762404 C22.0488182,14.9979205 22.3178268,14.9979205 22.5853342,14.9762404 C22.7785268,14.9493692 22.9696979,14.9110229 23.1576898,14.8614335 L23.2803374,15.728863 C22.7527439,15.9275991 22.1859963,16.0189174 21.6177807,15.9967457 C21.1474575,16.0078544 20.6808482,15.9161308 20.2550292,15.728863 C19.8919414,15.5642417 19.5851631,15.3080011 19.3692408,14.9889967 C19.1387432,14.642975 18.9857464,14.2567263 18.9195328,13.8536846 C18.823898,13.3785193 18.7782547,12.8957227 18.7832576,12.4122209 L18.7832576,4.94977603 L16.7391304,4.94977603 L16.7391304,4.00580865 L18.7832576,4.00580865 L18.7832576,1.90101651 L20.0097339,1.45454545 Z M25.4607398,4.00580865 L28.3088903,11.2386398 C28.5541856,11.7999177 28.7722258,12.335683 28.963011,12.8331793 L29.5489942,14.3384246 L30.1622323,12.9352298 C30.366645,12.4249772 30.5846853,11.8892119 30.8299805,11.327934 L33.7053861,4.00580865 L35,4.00580865 L30.0532122,15.6523251 L28.9902661,15.6523251 L24.220636,4.00580865 L25.4607398,4.00580865 Z" id="Shape"></path>
                <path d="M7.55575244,1.38735818 C8.18361399,0.582441489 9.1470748,0.0763416677 10.1968623,0 C10.2987576,0.942287875 9.98292045,1.88229968 9.32556833,2.59319287 C8.74198979,3.34862275 7.7882446,3.76106201 6.80698418,3.68233387 C6.70721975,2.85334312 6.97348367,2.02213091 7.54213847,1.38735818 L7.55575244,1.38735818 Z M6.9703518,4.58995138 C7.94088855,4.2594598 8.94451871,4.02483989 9.96542484,3.8897893 C11.2690887,3.82824752 12.5122972,4.41780784 13.2463912,5.44570502 C12.1147025,6.07412947 11.4236172,7.23214921 11.4357334,8.47974068 C11.4401747,9.89671909 12.3282976,11.1756845 13.6956522,11.7341977 C13.6956522,11.7341977 12.1164318,15.9740681 9.97903881,15.9740681 C8.99883309,15.9740681 8.23645086,15.3517018 7.25624514,15.3517018 C6.27603942,15.3517018 5.14608004,16 4.53345147,16 C2.46412827,16 0,11.9805511 0,8.73905997 C0,5.49756888 2.08293716,3.8897893 4.08419051,3.8897893 C5.32306163,3.8897893 6.30326735,4.58995138 6.9703518,4.58995138 Z" id="Shape"></path>
            </g>
        </g>
    </g>
</svg>