<?xml version="1.0" encoding="UTF-8"?>
<svg width="78px" height="17px" viewBox="0 0 78 17" version="1.1" xmlns="http://www.w3.org/2000/svg" xmlns:xlink="http://www.w3.org/1999/xlink">
    <!-- Generator: Sketch 52.6 (67491) - http://www.bohemiancoding.com/sketch -->
    <title>logo_firetablet</title>
    <desc>Created with Sketch.</desc>
    <g id="Combined-Site-" stroke="none" stroke-width="1" fill="none" fill-rule="evenodd">
        <g id="Devices---Phone-Tablet" transform="translate(-1093.000000, -1159.000000)" fill="#FFFFFF">
            <g id="Group-14">
                <g id="logo_firetablet" transform="translate(1093.000000, 1158.000000)">
                    <path d="M49.248,17.5433333 L47.4873333,17.5433333 L47.4873333,6.65 L48.5766667,6.65 L50.54,6.65 C51.4544941,6.64160648 52.3225181,7.05228448 52.896,7.76466667 C53.3944926,8.40219667 53.5804765,9.22982526 53.4026667,10.0193333 C53.2801979,10.7661986 52.8099956,11.4103757 52.136,11.7546667 C53.3992126,12.1227403 54.2127008,13.3483245 54.0613333,14.6553333 C53.9521505,16.1538105 52.7604771,17.3454839 51.262,17.4546667 C50.9387199,17.4980583 50.6128436,17.5192191 50.2866667,17.518 L49.248,17.5433333 Z M48.906,16.3526667 L49.476,16.3526667 L50.958,16.3526667 C51.4364392,16.3378178 51.890484,16.1380381 52.2246667,15.7953333 C52.6762403,15.276587 52.807502,14.5522164 52.5666667,13.908 C52.4198621,13.2312911 51.8503518,12.7284803 51.1606667,12.6666667 C50.6261547,12.6139649 50.0890009,12.5928171 49.552,12.6033333 L48.906,12.6033333 L48.906,16.3526667 Z M49.058,11.4 L49.6533333,11.4 C50.0801421,11.4170031 50.5070925,11.3700385 50.92,11.2606667 C51.2242445,11.1768272 51.4945011,10.9996098 51.6926667,10.754 C52.0185818,10.2891174 52.1076707,9.69831748 51.9333333,9.158 C51.8747485,8.54507985 51.4031285,8.05249893 50.7933333,7.96733333 C50.3353784,7.91059282 49.8740825,7.88520038 49.4126667,7.89133333 L48.8553333,7.89133333 L48.8553333,11.4 L49.058,11.4 Z" id="Shape" fill-rule="nonzero"></path>
                    <path d="M44.5486667,17.5306667 L43.4846667,14.6933333 L39.3426667,14.6933333 L38.2913333,17.5306667 L36.7966667,17.5306667 L40.926,6.612 L41.9013333,6.612 L46.056,17.5306667 L44.5486667,17.5306667 Z M43.0666667,13.4266667 L41.4073333,8.94266667 L39.7986667,13.4266667 L43.0666667,13.4266667 Z" id="Shape" fill-rule="nonzero"></path>
                    <polygon id="Path" points="63.1053333 17.518 63.1053333 6.63733333 68.514 6.63733333 68.058 7.85333333 64.524 7.85333333 64.524 11.362 68.0073333 11.362 68.0073333 12.5526667 64.5366667 12.5526667 64.5366667 16.3273333 68.552 16.3273333 68.552 17.518"></polygon>
                    <polygon id="Path" points="32.8066667 17.5306667 32.8066667 7.866 29.754 7.866 29.754 6.65 37.6326667 6.65 37.202 7.85333333 34.2253333 7.85333333 34.2253333 17.5306667"></polygon>
                    <polygon id="Path" points="72.694 17.5306667 72.694 7.85333333 69.6286667 7.85333333 69.6286667 6.65 77.52 6.65 77.0893333 7.85333333 74.1 7.85333333 74.1 17.5306667"></polygon>
                    <path d="M56.1513333,17.518 L56.1513333,6.65 L57.5573333,6.65 L57.5573333,16.3273333 L61.5093333,16.3273333 L61.5093333,16.4666667 C61.5093333,16.4666667 61.5093333,16.5426667 61.5093333,16.5806667 L61.5093333,17.4926667 L56.1513333,17.518 Z" id="Path"></path>
                    <path d="M23.2306667,17.7333333 C22.9124865,17.7332125 22.5948193,17.7077991 22.2806667,17.6573333 C20.761635,17.4669052 19.4465234,16.5104604 18.7973333,15.124 C17.7428241,13.0404586 17.7854905,10.5705436 18.9113333,8.52466667 C19.6150511,7.15705147 21.0341688,6.30754504 22.572,6.33333333 C22.9560527,6.33642034 23.3385091,6.38316501 23.712,6.47266667 C24.8998842,6.76257823 25.87569,7.6063909 26.334,8.74 C26.7908839,9.87734428 26.9940552,11.1006953 26.9293333,12.3246667 L26.9293333,12.4133333 L20.0006667,12.4133333 C19.9876035,13.282451 20.2491323,14.1335278 20.748,14.8453333 C21.3486354,15.639601 22.2855379,16.1080523 23.2813333,16.112 L23.4333333,16.112 C24.2633407,16.1071837 25.0800408,15.9030087 25.8146667,15.5166667 L26.106,15.3646667 L26.7266667,16.6313333 L26.6633333,16.6313333 C26.202393,16.9332904 25.6984869,17.1638915 25.1686667,17.3153333 C24.5468083,17.5494534 23.8937421,17.6903108 23.2306667,17.7333333 Z M24.9913333,10.9313333 C25.0115762,10.162974 24.7851835,9.40833145 24.3453333,8.778 C23.9363876,8.19699631 23.269826,7.85189706 22.5593333,7.85333333 C22.0740769,7.85515294 21.6026654,8.01525499 21.2166667,8.30933333 C20.6226684,8.75190541 20.2195605,9.40412492 20.0893333,10.1333333 C20.0893333,10.3233333 20.0893333,10.5133333 20.0006667,10.716 C19.912,10.9186667 20.0006667,10.83 20.0006667,10.8933333 L24.9913333,10.9313333 Z" id="Shape" fill-rule="nonzero"></path>
                    <path d="M1.41866667,17.4926667 L1.41866667,8.132 L0,8.132 L0,6.58666667 L1.41866667,6.58666667 L1.41866667,5.63666667 C1.38670189,5.09246898 1.38670189,4.54686436 1.41866667,4.00266667 C1.46043146,3.21875146 1.81814896,2.4852384 2.41012335,1.9696478 C3.00209775,1.4540572 3.77777308,1.20042166 4.56,1.26666667 L4.96533333,1.26666667 C5.26909906,1.29694539 5.5698795,1.35201786 5.86466667,1.43133333 L6.33333333,1.54533333 L6.33333333,1.57066667 L5.95333333,3.116 L5.87733333,3.116 L5.59866667,3.04 C5.42484004,2.98716372 5.24688046,2.94902952 5.06666667,2.926 L4.72466667,2.926 C4.56069232,2.90464569 4.39464102,2.90464569 4.23066667,2.926 C3.75209498,3.03657126 3.3961635,3.43826537 3.344,3.92666667 C3.2911509,4.2322095 3.26151064,4.54131512 3.25533333,4.85133333 C3.25533333,5.25666667 3.25533333,5.662 3.25533333,6.118 L3.25533333,6.58666667 L6.01666667,6.58666667 L5.44666667,8.132 L3.25533333,8.132 L3.25533333,17.4926667 L1.41866667,17.4926667 Z" id="Path"></path>
                    <path d="M12.1346667,17.4926667 L12.1346667,6.59933333 L13.6926667,6.59933333 L13.8953333,7.866 L13.9333333,7.76466667 C14.0726667,7.61266667 14.212,7.46066667 14.364,7.32133333 C15.0101662,6.68822229 15.8787006,6.33353284 16.7833333,6.33333333 L17.1,6.33333333 C17.3143233,6.35750554 17.5261995,6.39988078 17.7333333,6.46 L18.0246667,6.536 L18.126,6.536 L17.4546667,8.27133333 L17.366,8.27133333 C17.0900554,8.13473111 16.7871949,8.06117929 16.4793333,8.056 C16.0159738,8.08476026 15.5731524,8.25746061 15.2126667,8.55 L14.3893333,9.22133333 L13.9333333,9.51266667 L13.9333333,17.4926667 L12.1346667,17.4926667 Z" id="Path"></path>
                    <rect id="Rectangle" x="7.53666667" y="6.59933333" width="1.79866667" height="10.8933333"></rect>
                    <path d="M8.41066667,4.34466667 C8.10059503,4.35148308 7.80085924,4.23305765 7.57918183,4.0161475 C7.35750443,3.79923736 7.23259175,3.50214654 7.23266667,3.192 C7.23072011,2.85531622 7.36289708,2.53171052 7.6,2.29266667 C7.81041846,2.08165549 8.08849602,1.95158696 8.38533333,1.92533333 C8.71247705,1.89277706 9.03795518,2.00146225 9.27989962,2.22405114 C9.52184406,2.44664002 9.6572287,2.76194857 9.652,3.09066667 C9.67656416,3.41595723 9.56513833,3.73686981 9.34427117,3.97694281 C9.12340401,4.21701581 8.81287317,4.35475178 8.48666667,4.35733333 L8.41066667,4.34466667 Z" id="Path"></path>
                </g>
            </g>
        </g>
    </g>
</svg>