<?xml version="1.0" encoding="UTF-8"?>
<svg width="49px" height="15px" viewBox="0 0 49 15" version="1.1" xmlns="http://www.w3.org/2000/svg" xmlns:xlink="http://www.w3.org/1999/xlink">
    <!-- Generator: Sketch 52.6 (67491) - http://www.bohemiancoding.com/sketch -->
    <title>logo_roku</title>
    <desc>Created with Sketch.</desc>
    <g id="Combined-Site-" stroke="none" stroke-width="1" fill="none" fill-rule="evenodd">
        <g id="3.-PL-VP-Landing-1024" transform="translate(-267.000000, -2938.000000)" fill="#FFFFFF" fill-rule="nonzero">
            <g id="logo_roku" transform="translate(267.000000, 2938.000000)">
                <path d="M7.53256007,4.75431818 C7.53609934,4.12557144 7.28289735,3.52120896 6.82865767,3.07418838 C6.37441798,2.62716781 5.75635105,2.37410821 5.11042945,2.37068182 L3.89936414,2.37068182 L3.89936414,7.125 L5.11042945,7.125 C6.45028512,7.11787296 7.53258008,6.05856717 7.53256007,4.75431818 M13.015625,14.25 L8.59723287,14.25 L5.08381263,9.49568182 L3.89936414,9.49568182 L3.89936414,14.25 L0,14.25 L0,0 L5.58953221,0 C8.81016743,0 11.4319242,2.1375 11.4319242,4.75431818 C11.3631286,6.40012726 10.3928514,7.88360055 8.89001789,8.64068182 L13.015625,14.25" id="Shape"></path>
                <path d="M17.6548411,5.82040489 C16.6013373,5.82040489 15.698334,7.15075644 15.698334,8.94673103 C15.698334,10.7427056 16.6013373,12.0331466 17.6548411,12.0331466 C18.7083449,12.0331466 19.6387119,10.7027951 19.6387119,8.89351697 C19.6387119,7.08423886 18.7357087,5.76719083 17.6548411,5.76719083 L17.6548411,5.82040489 Z M23.8253635,8.94673103 C23.8475426,11.3781845 22.3582869,13.5822394 20.0543656,14.5276977 C17.7504442,15.473156 15.0874665,14.9730496 13.311344,13.2613603 C11.5352215,11.5496711 10.9971894,8.96489211 11.9489734,6.71634862 C12.9007574,4.46780514 15.1541387,3.00015524 17.6548411,3.00005961 C19.284113,2.99298724 20.8495417,3.6155403 22.0067426,4.73076091 C23.1639436,5.84598153 23.8181223,7.3625142 23.8253635,8.94673103 Z M33.2384884,3.23952288 L28.6140171,7.7228076 L28.6140171,3.22621937 L24.6052299,3.22621937 L24.6052299,14.6938497 L28.6140171,14.6938497 L28.6140171,10.0243158 L33.4437164,14.6938497 L38.4786437,14.6938497 L32.349167,8.70726775 L37.4251399,3.78496702 L37.4251399,10.5697599 C37.4251399,12.8313576 38.7933267,14.906706 42.3369304,14.906706 C43.8332076,14.861247 45.2480061,14.233326 46.2636265,13.1639454 L48.0833149,14.6938497 L49,14.6938497 L49,3.23952288 L44.8954397,3.23952288 L44.8954397,10.7027951 C44.5213123,11.4736632 43.7197488,11.9620856 42.8431595,11.9533255 C41.8580651,11.9533255 41.4065634,11.3812744 41.4065634,9.57199626 L41.4065634,3.23952288 L33.2384884,3.23952288 Z" id="Shape"></path>
            </g>
        </g>
    </g>
</svg>